<svg width="1280" height="256" xmlns="http://www.w3.org/2000/svg" xmlns:xlink="http://www.w3.org/1999/xlink" overflow="hidden"><defs><clipPath id="clip0"><path d="M0 0 1280 0 1280 256 0 256Z" fill-rule="evenodd" clip-rule="evenodd"/></clipPath></defs><g clip-path="url(#clip0)"><rect x="0" y="0" width="1280" height="256" fill="#FFFFFF"/><text font-family="Arial,Arial_MSFontService,sans-serif" font-weight="900" font-size="43" transform="translate(696.504 66)">WORLD<tspan x="0" y="51">LOCKING</tspan><tspan x="0" y="102">TOOLS</tspan><tspan font-style="italic" font-weight="400" x="0" y="154">Samples</tspan></text><path d="M486 136.5C486 80.4431 528.981 35 582 35 635.019 35 678 80.4431 678 136.5 678 192.557 635.019 238 582 238 528.981 238 486 192.557 486 136.5Z" fill="#FF3210" fill-rule="evenodd"/><path d="M467 128.5C467 72.4431 510.205 27 563.5 27 616.795 27 660 72.4431 660 128.5 660 184.557 616.795 230 563.5 230 510.205 230 467 184.557 467 128.5Z" fill-rule="evenodd"/></g></svg>